<svg viewBox="0 0 80 80" xmlns="http://www.w3.org/2000/svg">
  <defs>
    <!-- Glow filters -->
    <filter id="glow-cyan" x="-50%" y="-50%" width="200%" height="200%">
      <feGaussianBlur stdDeviation="2" result="coloredBlur"/>
      <feMerge>
        <feMergeNode in="coloredBlur"/>
        <feMergeNode in="SourceGraphic"/>
      </feMerge>
    </filter>
    <filter id="glow-pink" x="-50%" y="-50%" width="200%" height="200%">
      <feGaussianBlur stdDeviation="1.5" result="coloredBlur"/>
      <feMerge>
        <feMergeNode in="coloredBlur"/>
        <feMergeNode in="SourceGraphic"/>
      </feMerge>
    </filter>
    <filter id="glow-strong" x="-50%" y="-50%" width="200%" height="200%">
      <feGaussianBlur stdDeviation="3" result="coloredBlur"/>
      <feMerge>
        <feMergeNode in="coloredBlur"/>
        <feMergeNode in="SourceGraphic"/>
      </feMerge>
    </filter>
  </defs>

  <!-- Dark background -->
  <rect width="80" height="80" fill="#121212"/>

  <g transform="translate(40, 40)">
    <!-- Brain outer glow background -->
    <ellipse cx="0" cy="0" rx="30" ry="28" fill="none" stroke="#00ffff" stroke-width="1" opacity="0.15" filter="url(#glow-strong)"/>

    <!-- Brain outline - left hemisphere (cyan glow) -->
    <polyline points="-3,28 -8,26 -14,23 -20,18 -25,12 -28,5 -28,-3 -27,-10 -24,-16 -20,-21 -14,-25 -8,-27 0,-28"
      fill="none" stroke="#00ffff" stroke-width="2" filter="url(#glow-cyan)" opacity="0.9"/>

    <!-- Brain outline - right hemisphere (cyan glow) -->
    <polyline points="3,28 8,26 14,23 20,18 25,12 28,5 28,-3 27,-10 24,-16 20,-21 14,-25 8,-27 0,-28"
      fill="none" stroke="#00ffff" stroke-width="2" filter="url(#glow-cyan)" opacity="0.9"/>

    <!-- Brain bottom connection -->
    <polyline points="-3,28 0,30 3,28" fill="none" stroke="#00ffff" stroke-width="2" filter="url(#glow-cyan)" opacity="0.9"/>

    <!-- Corpus callosum (center connection) - pink -->
    <polyline points="0,-28 -2,-22 2,-16 -2,-10 2,-4 -2,2 2,8 -2,14 2,20 0,28"
      fill="none" stroke="#ff4088" stroke-width="2" filter="url(#glow-pink)" opacity="0.8"/>

    <!-- Left hemisphere gyri (brain folds) -->
    <!-- Frontal lobe folds -->
    <polyline points="-26,-8 -20,-10 -16,-6 -20,-2"
      fill="none" stroke="#4488ff" stroke-width="1.5" filter="url(#glow-cyan)" opacity="0.7"/>
    <polyline points="-24,-14 -18,-16 -14,-12 -18,-8"
      fill="none" stroke="#4488ff" stroke-width="1.5" filter="url(#glow-cyan)" opacity="0.7"/>
    <polyline points="-20,-20 -14,-22 -10,-18 -14,-14"
      fill="none" stroke="#4488ff" stroke-width="1.5" filter="url(#glow-cyan)" opacity="0.6"/>

    <!-- Parietal lobe folds -->
    <polyline points="-26,2 -20,0 -16,4 -20,8"
      fill="none" stroke="#00ffff" stroke-width="1.5" filter="url(#glow-cyan)" opacity="0.7"/>
    <polyline points="-24,10 -18,8 -14,12 -18,16"
      fill="none" stroke="#00ffff" stroke-width="1.5" filter="url(#glow-cyan)" opacity="0.7"/>

    <!-- Temporal lobe folds -->
    <polyline points="-22,18 -16,16 -12,20 -16,24"
      fill="none" stroke="#ff4088" stroke-width="1.5" filter="url(#glow-pink)" opacity="0.6"/>
    <polyline points="-10,22 -6,18 -4,22 -8,26"
      fill="none" stroke="#ff4088" stroke-width="1.5" filter="url(#glow-pink)" opacity="0.5"/>

    <!-- Right hemisphere gyri (mirrored) -->
    <!-- Frontal lobe folds -->
    <polyline points="26,-8 20,-10 16,-6 20,-2"
      fill="none" stroke="#4488ff" stroke-width="1.5" filter="url(#glow-cyan)" opacity="0.7"/>
    <polyline points="24,-14 18,-16 14,-12 18,-8"
      fill="none" stroke="#4488ff" stroke-width="1.5" filter="url(#glow-cyan)" opacity="0.7"/>
    <polyline points="20,-20 14,-22 10,-18 14,-14"
      fill="none" stroke="#4488ff" stroke-width="1.5" filter="url(#glow-cyan)" opacity="0.6"/>

    <!-- Parietal lobe folds -->
    <polyline points="26,2 20,0 16,4 20,8"
      fill="none" stroke="#00ffff" stroke-width="1.5" filter="url(#glow-cyan)" opacity="0.7"/>
    <polyline points="24,10 18,8 14,12 18,16"
      fill="none" stroke="#00ffff" stroke-width="1.5" filter="url(#glow-cyan)" opacity="0.7"/>

    <!-- Temporal lobe folds -->
    <polyline points="22,18 16,16 12,20 16,24"
      fill="none" stroke="#ff4088" stroke-width="1.5" filter="url(#glow-pink)" opacity="0.6"/>
    <polyline points="10,22 6,18 4,22 8,26"
      fill="none" stroke="#ff4088" stroke-width="1.5" filter="url(#glow-pink)" opacity="0.5"/>

    <!-- Inner brain structures (thalamus/brainstem hint) -->
    <polyline points="-8,5 -4,8 0,5 4,8 8,5"
      fill="none" stroke="#ff4088" stroke-width="1" filter="url(#glow-pink)" opacity="0.5"/>
    <polyline points="-6,-5 -2,-2 2,-5 6,-2"
      fill="none" stroke="#4488ff" stroke-width="1" filter="url(#glow-cyan)" opacity="0.5"/>

    <!-- Neural activity pulses -->
    <circle cx="-15" cy="-10" r="2" fill="#00ffff" filter="url(#glow-cyan)" opacity="0.7"/>
    <circle cx="15" cy="-10" r="2" fill="#00ffff" filter="url(#glow-cyan)" opacity="0.7"/>
    <circle cx="-12" cy="8" r="2" fill="#ff4088" filter="url(#glow-pink)" opacity="0.7"/>
    <circle cx="12" cy="8" r="2" fill="#ff4088" filter="url(#glow-pink)" opacity="0.7"/>
    <circle cx="0" cy="-18" r="2" fill="#4488ff" filter="url(#glow-cyan)" opacity="0.7"/>
    <circle cx="0" cy="15" r="2" fill="#ff4088" filter="url(#glow-pink)" opacity="0.7"/>

    <!-- Synaptic connections -->
    <line x1="-15" y1="-10" x2="-8" y2="-5" stroke="#00ffff" stroke-width="0.5" opacity="0.5"/>
    <line x1="15" y1="-10" x2="8" y2="-5" stroke="#00ffff" stroke-width="0.5" opacity="0.5"/>
    <line x1="-12" y1="8" x2="-4" y2="5" stroke="#ff4088" stroke-width="0.5" opacity="0.5"/>
    <line x1="12" y1="8" x2="4" y2="5" stroke="#ff4088" stroke-width="0.5" opacity="0.5"/>
  </g>
</svg>
